# Blender v2.93.7 OBJ File: 'axes.blend'
# www.blender.org
o Cube
v 1.000000 1.000000 -1.000000
v 1.000000 -1.000000 -1.000000
v 1.000000 1.000000 1.000000
v 1.000000 -1.000000 1.000000
v -1.000000 1.000000 -1.000000
v -1.000000 -1.000000 -1.000000
v -1.000000 1.000000 1.000000
v -1.000000 -1.000000 1.000000
v 1.000000 6.000000 1.000000
v -1.000000 6.000000 1.000000
v 6.000000 1.000000 -1.000000
v 6.000000 -1.000000 -1.000000
v 6.000000 1.000000 1.000000
v 6.000000 -1.000000 1.000000
v 1.000000 -1.000000 -6.000000
v -1.000000 -1.000000 -6.000000
v 1.000000 1.000000 -6.000000
v -1.000000 1.000000 -6.000000
v 7.000000 0.010592 -0.010592
v 0.501879 -0.501879 -6.600000
v -0.501879 -0.501879 -6.600000
v 0.501879 0.501879 -6.600000
v -0.501879 0.501879 -6.600000
v 1.003757 -1.003757 -7.000000
v -1.003757 -1.003757 -7.000000
v 1.003757 1.003757 -7.000000
v -1.003757 1.003757 -7.000000
v 1.000000 3.986009 -1.000000
v 1.000000 6.000000 1.000000
v -1.000000 6.000000 1.000000
v -1.000000 3.986009 -1.000000
vt 0.625000 0.750000
vt 0.375000 1.000000
vt 0.375000 0.750000
vt 0.625000 0.000000
vt 0.375000 0.250000
vt 0.375000 0.000000
vt 0.375000 0.500000
vt 0.125000 0.750000
vt 0.125000 0.500000
vt 0.375000 0.750000
vt 0.625000 0.250000
vt 0.375000 0.250000
vt 0.625000 0.500000
vt 0.625000 0.250000
vt 0.625000 0.500000
vt 0.875000 0.750000
vt 0.625000 0.750000
vt 0.625000 0.750000
vt 0.625000 0.000000
vt 0.625000 1.000000
vt 0.625000 1.000000
vt 0.375000 0.500000
vt 0.501324 0.623676
vt 0.625000 0.500000
vt 0.625000 0.750000
vt 0.125000 0.500000
vt 0.375000 0.500000
vt 0.375000 0.500000
vt 0.625000 0.250000
vt 0.625000 0.500000
vt 0.625000 0.250000
vt 0.375000 0.250000
vt 0.375000 0.250000
vt 0.625000 0.500000
vt 0.625000 0.250000
vt 0.375000 0.500000
vt 0.125000 0.500000
vt 0.625000 0.500000
vt 0.625000 0.250000
vt 0.875000 0.750000
vt 0.625000 0.000000
vt 0.125000 0.500000
vt 0.625000 0.500000
vn 0.0000 0.0000 1.0000
vn -1.0000 0.0000 0.0000
vn 0.0000 -1.0000 0.0000
vn 0.0000 0.0000 -1.0000
vn 0.7108 -0.7034 0.0000
vn 0.0000 1.0000 0.0000
vn 0.0000 -0.7694 -0.6388
vn 1.0000 0.0000 0.0000
vn 0.7108 0.0000 0.7034
vn -0.6233 0.0000 0.7820
vn 0.7033 0.0000 -0.7109
vn 0.7033 0.7109 0.0000
vn 0.0000 0.7694 -0.6388
vn 0.7694 0.0000 -0.6388
vn -0.7694 0.0000 -0.6388
vn 0.0000 -0.6233 0.7820
vn 0.0000 0.6233 0.7820
vn 0.6233 0.0000 0.7820
vn -0.0000 0.7046 -0.7096
s off
f 3/1/1 8/2/1 4/3/1
f 7/4/2 6/5/2 8/6/2
f 2/7/3 8/8/3 6/9/3
f 2/7/3 14/10/3 4/3/3
f 5/11/2 16/12/2 6/5/2
f 1/13/4 31/14/4 28/15/4
f 30/16/1 9/17/1 29/18/1
f 7/4/2 10/19/2 31/14/2
f 3/1/1 10/20/1 7/21/1
f 12/22/5 19/23/5 14/10/5
f 3/1/6 11/24/6 1/13/6
f 4/3/1 13/25/1 3/1/1
f 1/13/4 12/22/4 2/7/4
f 16/26/7 20/27/7 15/28/7
f 6/9/3 15/28/3 2/7/3
f 1/13/6 18/29/6 5/11/6
f 2/7/8 17/30/8 1/13/8
f 14/10/9 19/23/9 13/25/9
f 23/31/10 25/32/10 21/33/10
f 19/23/11 12/22/11 11/24/11
f 13/25/12 19/23/12 11/24/12
f 17/30/13 23/31/13 18/29/13
f 15/28/14 22/34/14 17/30/14
f 18/29/15 21/33/15 16/12/15
f 27/35/4 24/36/4 25/32/4
f 21/37/16 24/36/16 20/27/16
f 22/34/17 27/35/17 23/31/17
f 20/27/18 26/38/18 22/34/18
f 30/39/19 28/15/19 31/14/19
f 3/1/8 28/15/8 29/18/8
f 3/1/1 7/21/1 8/2/1
f 7/4/2 5/11/2 6/5/2
f 2/7/3 4/3/3 8/8/3
f 2/7/3 12/22/3 14/10/3
f 5/11/2 18/29/2 16/12/2
f 1/13/4 5/11/4 31/14/4
f 30/16/1 10/40/1 9/17/1
f 31/14/2 5/11/2 7/4/2
f 10/19/1 30/41/1 31/14/1
f 3/1/1 9/17/1 10/20/1
f 3/1/6 13/25/6 11/24/6
f 4/3/1 14/10/1 13/25/1
f 1/13/4 11/24/4 12/22/4
f 16/26/7 21/37/7 20/27/7
f 6/9/3 16/26/3 15/28/3
f 1/13/6 17/30/6 18/29/6
f 2/7/8 15/28/8 17/30/8
f 23/31/10 27/35/10 25/32/10
f 17/30/13 22/34/13 23/31/13
f 15/28/14 20/27/14 22/34/14
f 18/29/15 23/31/15 21/33/15
f 27/35/4 26/38/4 24/36/4
f 21/37/16 25/42/16 24/36/16
f 22/34/17 26/38/17 27/35/17
f 20/27/18 24/36/18 26/38/18
f 30/39/19 29/43/19 28/15/19
f 3/1/8 1/13/8 28/15/8
f 29/18/1 9/17/1 3/1/1
